<svg width="29" height="30" viewBox="0 0 29 30" version="1.1" xmlns="http://www.w3.org/2000/svg" xmlns:xlink="http://www.w3.org/1999/xlink">
<title>Group</title>
<desc>Created using Figma</desc>
<g id="Canvas" transform="translate(421 121)">
<g id="Group">
<g id="Group">
<g id="Vector">
<use xlink:href="#path0_fill" transform="translate(-420.3 -121)" fill="#1F89C6"/>
</g>
</g>
</g>
</g>
<defs>
<path id="path0_fill" d="M 27.2 4.89999C 26.8 4.49999 26.3 4.29999 25.7 4.29999L 23.6 4.29999L 23.6 2.70001C 23.6 2.00001 23.3 1.29999 22.8 0.799988C 22.3 0.299988 21.7 5.68434e-14 20.9 5.68434e-14L 19.8 5.68434e-14C 19.1 5.68434e-14 18.4 0.299988 17.9 0.799988C 17.4 1.29999 17.1 1.90001 17.1 2.70001L 17.1 4.29999L 10.7 4.29999L 10.7 2.70001C 10.7 2.00001 10.4 1.29999 9.89998 0.799988C 9.39998 0.299988 8.80001 5.68434e-14 8.00001 5.68434e-14L 6.89998 5.68434e-14C 6.19998 5.68434e-14 5.50001 0.299988 5.00001 0.799988C 4.50001 1.29999 4.20002 1.90001 4.20002 2.70001L 4.20002 4.29999L 2.09999 4.29999C 1.49999 4.29999 0.999988 4.49999 0.599988 4.89999C 0.199988 5.29999 1.2207e-05 5.79999 1.2207e-05 6.39999L 1.2207e-05 27.6C 1.2207e-05 28.2 0.199988 28.7 0.599988 29.1C 0.999988 29.5 1.49999 29.7 2.09999 29.7L 25.4 29.7C 26 29.7 26.5 29.5 26.9 29.1C 27.3 28.7 27.5 28.2 27.5 27.6L 27.5 6.39999C 27.9 5.79999 27.7 5.29999 27.2 4.89999ZM 19.4 2.60001C 19.4 2.40001 19.4 2.30001 19.5 2.20001C 19.6 2.10001 19.7 2.10001 19.9 2.10001L 21 2.10001C 21.2 2.10001 21.3 2.10001 21.4 2.20001C 21.5 2.30001 21.5 2.40001 21.5 2.60001L 21.5 7.39999C 21.5 7.59999 21.5 7.69999 21.4 7.79999C 21.3 7.89999 21.2 7.89999 21 7.89999L 19.9 7.89999C 19.7 7.89999 19.6 7.89999 19.5 7.79999C 19.4 7.69999 19.4 7.59999 19.4 7.39999L 19.4 2.60001ZM 6.70002 2.60001C 6.70002 2.40001 6.7 2.30001 6.8 2.20001C 6.9 2.10001 7.00002 2.10001 7.20002 2.10001L 8.3 2.10001C 8.5 2.10001 8.60002 2.10001 8.70002 2.20001C 8.80002 2.30001 8.8 2.40001 8.8 2.60001L 8.8 7.39999C 8.8 7.59999 8.80002 7.69999 8.70002 7.79999C 8.60002 7.89999 8.5 7.89999 8.3 7.89999L 7.20002 7.89999C 7.00002 7.89999 6.9 7.89999 6.8 7.79999C 6.7 7.69999 6.70002 7.59999 6.70002 7.39999L 6.70002 2.60001ZM 25.8 27.5L 2.50001 27.5L 2.50001 10.6L 25.8 10.6L 25.8 27.5Z"/>
</defs>
</svg>
