<svg width="27" height="22" viewBox="0 0 27 22" version="1.1" xmlns="http://www.w3.org/2000/svg" xmlns:xlink="http://www.w3.org/1999/xlink">
<title>Vector</title>
<desc>Created using Figma</desc>
<g id="Canvas" transform="translate(738 -227)">
<g id="Vector">
<use xlink:href="#path0_fill" transform="translate(-738 227.2)" fill="#1F89C6"/>
</g>
</g>
<defs>
<path id="path0_fill" d="M 24.3 1.2207e-05L 2.7 1.2207e-05C 1.2 1.2207e-05 -2.84217e-14 1.19999 -2.84217e-14 2.69999L -2.84217e-14 18.9C -2.84217e-14 20.4 1.2 21.6 2.7 21.6L 24.3 21.6C 25.8 21.6 27 20.4 27 18.9L 27 2.69999C 27 1.19999 25.8 1.2207e-05 24.3 1.2207e-05ZM 24.3 5.40001L 13.5 12.1L 2.7 5.40001L 2.7 2.69999L 13.5 9.50001L 24.3 2.69999L 24.3 5.40001Z"/>
</defs>
</svg>
