<svg width="45" height="45" viewBox="0 0 45 45" version="1.1" xmlns="http://www.w3.org/2000/svg" xmlns:xlink="http://www.w3.org/1999/xlink">
<title>Group</title>
<desc>Created using Figma</desc>
<g id="Canvas" transform="translate(8756 -13795)">
<g id="Group">
<g id="Group">
<g id="Facebook__x28_alt_x29__8_">
<use xlink:href="#path0_fill" transform="translate(-8755.3 13795.5)" fill="#6D6D6D"/>
</g>
</g>
</g>
</g>
<defs>
<path id="path0_fill" d="M 43.9 7.2998C 43.9 3.3998 40.4 0 36.6 0L 7.3 0C 3.4 0 -4.88281e-05 3.4998 -4.88281e-05 7.2998L -4.88281e-05 36.6001C -4.88281e-05 40.5001 3.5 43.8999 7.3 43.8999L 22 43.8999L 22 27.2998L 16.6 27.2998L 16.6 20L 22 20L 22 17.1001C 22 12.2001 25.7 7.7002 30.3 7.7002L 36.2 7.7002L 36.2 15L 30.3 15C 29.7 15 28.9 15.8 28.9 17L 28.9 19.8999L 36.2 19.8999L 36.2 27.2002L 28.9 27.2002L 28.9 43.7998L 36.7 43.7998C 40.6 43.7998 44 40.3 44 36.5L 44 7.2998L 43.9 7.2998Z"/>
</defs>
</svg>
