<svg width="44" height="44" viewBox="0 0 44 44" version="1.1" xmlns="http://www.w3.org/2000/svg" xmlns:xlink="http://www.w3.org/1999/xlink">
<title>Group</title>
<desc>Created using Figma</desc>
<g id="Canvas" transform="translate(640 -470)">
<g id="Group">
<g id="Group">
<g id="Facebook__x28_alt_x29__10_">
<use xlink:href="#path0_fill" transform="translate(-639.9 470)" fill="#1F89C6"/>
</g>
</g>
</g>
</g>
<defs>
<path id="path0_fill" d="M 43.9 7.29999C 43.9 3.39999 40.4 0 36.6 0L 7.29999 0C 3.39999 0 6.10352e-06 3.49999 6.10352e-06 7.29999L 6.10352e-06 36.6C 6.10352e-06 40.5 3.49999 43.9 7.29999 43.9L 21.9 43.9L 21.9 27.3L 16.5 27.3L 16.5 20L 21.9 20L 21.9 17.1C 21.9 12.2 25.6 7.70001 30.2 7.70001L 36.1 7.70001L 36.1 15L 30.2 15C 29.6 15 28.8 15.8 28.8 17L 28.8 19.9L 36.1 19.9L 36.1 27.2L 28.8 27.2L 28.8 44L 36.6 44C 40.5 44 43.9 40.5 43.9 36.7L 43.9 7.29999Z"/>
</defs>
</svg>
