<svg width="45" height="45" viewBox="0 0 45 45" version="1.1" xmlns="http://www.w3.org/2000/svg" xmlns:xlink="http://www.w3.org/1999/xlink">
<title>Group</title>
<desc>Created using Figma</desc>
<g id="Canvas" transform="translate(8693 -13795)">
<g id="Group">
<g id="Group">
<g id="LinkedIn__x28_alt_x29__8_">
<use xlink:href="#path0_fill" transform="translate(-8692.4 13795.5)" fill="#6D6D6D"/>
</g>
</g>
</g>
</g>
<defs>
<path id="path0_fill" d="M 40.8 0L 3.30002 0C 1.50002 0 -2.44141e-05 1.4002 -2.44141e-05 3.2002L -2.44141e-05 40.8999C -2.44141e-05 42.5999 1.50002 44.1001 3.30002 44.1001L 40.8 44.1001C 42.6 44.1001 44 42.6999 44 40.8999L 44 3.2002C 44 1.4002 42.6 0 40.8 0ZM 13.4 36.7998L 6.80002 36.7998L 6.80002 17L 13.4 17L 13.4 36.7998ZM 9.99998 14.2998C 7.69998 14.2998 6.30002 12.7999 6.30002 10.8999C 6.30002 8.9999 7.79995 7.5 10.1 7.5C 12.4 7.5 13.8 8.9999 13.8 10.8999C 13.8 12.6999 12.4 14.2998 9.99998 14.2998ZM 37.3 36.7998L 30.7 36.7998L 30.7 26.2002C 30.7 23.5002 29.7 21.7002 27.3 21.7002C 25.5 21.7002 24.4 22.9001 23.9 24.1001C 23.7 24.5001 23.7 25.1002 23.7 25.7002L 23.7 36.7998L 17.1 36.7998C 17.1 36.7998 17.2 18.7999 17.1 16.8999L 23.7 16.8999L 23.7 19.7002C 24.6 18.3002 26.2 16.3999 29.7 16.3999C 34.1 16.3999 37.4 19.1998 37.4 25.2998L 37.4 36.7998L 37.3 36.7998Z"/>
</defs>
</svg>
