<svg width="45" height="45" viewBox="0 0 45 45" version="1.1" xmlns="http://www.w3.org/2000/svg" xmlns:xlink="http://www.w3.org/1999/xlink">
<title>Group</title>
<desc>Created using Figma</desc>
<g id="Canvas" transform="translate(543 -470)">
<g id="Group">
<g id="Group">
<g id="LinkedIn__x28_alt_x29__10_">
<use xlink:href="#path0_fill" transform="translate(-542.6 470)" fill="#1F89C6"/>
</g>
</g>
</g>
</g>
<defs>
<path id="path0_fill" d="M 40.8 0L 3.30001 0C 1.50001 0 -6.10352e-06 1.40001 -6.10352e-06 3.20001L -6.10352e-06 40.9C -6.10352e-06 42.6 1.50001 44.1 3.30001 44.1L 40.8 44.1C 42.6 44.1 44 42.7 44 40.9L 44 3.20001C 44.1 1.40001 42.6 0 40.8 0ZM 13.4 36.8L 6.80001 36.8L 6.80001 17L 13.4 17L 13.4 36.8ZM 10.1 14.3C 7.8 14.3 6.39999 12.8 6.39999 10.9C 6.39999 9.00002 7.90001 7.5 10.2 7.5C 12.5 7.5 13.9 9.00002 13.9 10.9C 13.8 12.7 12.4 14.3 10.1 14.3ZM 37.4 36.8L 30.8 36.8L 30.8 26.2C 30.8 23.5 29.8 21.7 27.4 21.7C 25.6 21.7 24.5 22.9 24 24.1C 23.8 24.5 23.8 25.1 23.8 25.7L 23.8 36.8L 17.2 36.8C 17.2 36.8 17.3 18.8 17.2 16.9L 23.8 16.9L 23.8 19.7C 24.7 18.3 26.3 16.4 29.8 16.4C 34.2 16.4 37.5 19.2 37.5 25.3L 37.5 36.8L 37.4 36.8Z"/>
</defs>
</svg>
