<svg width="51" height="50" viewBox="0 0 51 50" version="1.1" xmlns="http://www.w3.org/2000/svg" xmlns:xlink="http://www.w3.org/1999/xlink">
<title>Group</title>
<desc>Created using Figma</desc>
<g id="Canvas" transform="translate(8900 -12323)">
<g id="Group">
<g id="Group">
<g id="Group">
<g id="Vector">
<use xlink:href="#path0_fill" transform="translate(-8900 12323.3)" fill="#A4A4A4"/>
</g>
</g>
<g id="Group">
<g id="Vector">
<use xlink:href="#path1_fill" transform="translate(-8900 12341.7)" fill="#A4A4A4"/>
</g>
</g>
<g id="Group">
<g id="Vector">
<use xlink:href="#path2_fill" transform="translate(-8900 12360.1)" fill="#A4A4A4"/>
</g>
</g>
<g id="Group">
<g id="Vector">
<use xlink:href="#path3_fill" transform="translate(-8880.8 12323.3)" fill="#A4A4A4"/>
</g>
</g>
<g id="Group">
<g id="Vector">
<use xlink:href="#path4_fill" transform="translate(-8880.8 12341.7)" fill="#A4A4A4"/>
</g>
</g>
<g id="Group">
<g id="Vector">
<use xlink:href="#path5_fill" transform="translate(-8880.8 12360.1)" fill="#A4A4A4"/>
</g>
</g>
<g id="Group">
<g id="Vector">
<use xlink:href="#path0_fill" transform="translate(-8861.5 12323.3)" fill="#A4A4A4"/>
</g>
</g>
<g id="Group">
<g id="Vector">
<use xlink:href="#path1_fill" transform="translate(-8861.5 12341.7)" fill="#A4A4A4"/>
</g>
</g>
<g id="Group">
<g id="Vector">
<use xlink:href="#path2_fill" transform="translate(-8861.5 12360.1)" fill="#A4A4A4"/>
</g>
</g>
</g>
</g>
</g>
<defs>
<path id="path0_fill" d="M 12.5 -0.000195313L 0 -0.000195313L 0 12.4998L 12.5 12.4998L 12.5 -0.000195313Z"/>
<path id="path1_fill" d="M 12.5 0.000195313L 0 0.000195313L 0 12.5002L 12.5 12.5002L 12.5 0.000195313Z"/>
<path id="path2_fill" d="M 12.5 9.76563e-05L 0 9.76563e-05L 0 12.5001L 12.5 12.5001L 12.5 9.76563e-05Z"/>
<path id="path3_fill" d="M 12.5 -0.000195313L -4.88281e-05 -0.000195313L -4.88281e-05 12.4998L 12.5 12.4998L 12.5 -0.000195313Z"/>
<path id="path4_fill" d="M 12.5 0.000195313L -4.88281e-05 0.000195313L -4.88281e-05 12.5002L 12.5 12.5002L 12.5 0.000195313Z"/>
<path id="path5_fill" d="M 12.5 9.76563e-05L -4.88281e-05 9.76563e-05L -4.88281e-05 12.5001L 12.5 12.5001L 12.5 9.76563e-05Z"/>
</defs>
</svg>
