<svg width="26" height="27" viewBox="0 0 26 27" version="1.1" xmlns="http://www.w3.org/2000/svg" xmlns:xlink="http://www.w3.org/1999/xlink">
<title>Vector</title>
<desc>Created using Figma</desc>
<g id="Canvas" transform="translate(737 -143)">
<g id="Vector">
<use xlink:href="#path0_fill" transform="translate(-737 143.9)" fill="#1F89C6"/>
</g>
</g>
<defs>
<path id="path0_fill" d="M 5.2 11.4C 7.3 15.5 10.6 18.8 14.7 20.9L 17.9 17.7C 18.3 17.3 18.9 17.2 19.4 17.4C 21 17.9 22.8 18.2 24.6 18.2C 25.4 18.2 26 18.8 26 19.6L 26 24.6C 26 25.4 25.4 26 24.6 26C 11 26 2.84217e-14 15 2.84217e-14 1.39999C 2.84217e-14 0.599988 0.599994 -6.10352e-06 1.39999 -6.10352e-06L 6.5 -6.10352e-06C 7.3 -6.10352e-06 7.89999 0.599988 7.89999 1.39999C 7.89999 3.19999 8.2 4.9 8.7 6.6C 8.9 7.1 8.7 7.7 8.3 8.1L 5.2 11.4Z"/>
</defs>
</svg>
