<svg width="37" height="26" viewBox="0 0 37 26" version="1.1" xmlns="http://www.w3.org/2000/svg" xmlns:xlink="http://www.w3.org/1999/xlink">
<title>signature</title>
<desc>Created using Figma</desc>
<g id="Canvas" transform="translate(-591 698)">
<g id="signature">
<g id="Group">
<g id="Vector">
<use xlink:href="#path0_fill" transform="matrix(-1 0 0 1 613.795 -698)" fill="#1F89C6"/>
</g>
<g id="Vector">
<use xlink:href="#path1_fill" transform="matrix(-1 0 0 1 628 -674.194)" fill="#1F89C6"/>
</g>
</g>
</g>
</g>
<defs>
<path id="path0_fill" d="M 0.381084 7.76668L 3.17762 10.1763L 6.18145 17.681C 6.30297 17.9847 6.55285 18.2178 6.86256 18.3165L 21.3795 22.9394C 21.4872 22.9737 21.5975 22.9903 21.7069 22.9903C 21.9911 22.9903 22.2691 22.878 22.4763 22.6691C 22.7631 22.3797 22.8666 21.9534 22.7443 21.5631L 18.16 6.92408C 18.0621 6.6113 17.8305 6.35917 17.5287 6.23678L 10.1107 3.22681L 7.70186 0.384192C 7.50482 0.151642 7.22044 0.0126461 6.91742 0.000736531C 6.61579 -0.0103895 6.32007 0.104945 6.10562 0.321196L 0.318615 6.15718C 0.104166 6.37343 -0.0109834 6.67007 0.00082683 6.9758C 0.0127924 7.28137 0.15063 7.56798 0.381084 7.76668ZM 19.3299 17.9449L 12.0194 10.5728C 11.5947 10.1445 10.906 10.1444 10.481 10.5728C 10.0563 11.0011 10.0563 11.6957 10.481 12.124L 17.7914 19.496L 8.00706 16.3801L 5.37712 9.80979L 9.7183 5.4321L 16.2403 8.07852L 19.3299 17.9449ZM 6.81237 2.71141L 7.97692 4.0857L 4.05173 8.04389L 2.68889 6.86955L 6.81237 2.71141Z"/>
<path id="path1_fill" d="M 35.9122 -6.88641e-07L 1.08778 -6.88641e-07C 0.487016 -6.88641e-07 0 0.49111 0 1.09693C 0 1.70275 0.487016 2.19386 1.08778 2.19386L 35.9122 2.19386C 36.513 2.19386 37 1.70275 37 1.09693C 37 0.49111 36.513 -6.88641e-07 35.9122 -6.88641e-07Z"/>
</defs>
</svg>
