<svg width="45" height="45" viewBox="0 0 45 45" version="1.1" xmlns="http://www.w3.org/2000/svg" xmlns:xlink="http://www.w3.org/1999/xlink">
<title>Group</title>
<desc>Created using Figma</desc>
<g id="Canvas" transform="translate(8822 -13795)">
<g id="Group">
<g id="Group">
<g id="Group">
<g id="Vector">
<use xlink:href="#path0_fill" transform="translate(-8821.4 13795.5)" fill="#6D6D6D"/>
</g>
</g>
</g>
</g>
</g>
<defs>
<path id="path0_fill" d="M 35.8 0L 8.30002 0C 3.70002 0 -2.44141e-05 3.6998 -2.44141e-05 8.2998L -2.44141e-05 35.7998C -2.44141e-05 40.3998 3.70002 44.1001 8.30002 44.1001L 35.8 44.1001C 40.4 44.1001 44.1 40.3998 44.1 35.7998L 44.1 8.2998C 44 3.6998 40.3 0 35.8 0ZM 33 17.1001L 33 17.7998C 33 24.9998 27.6 33.2002 17.6 33.2002C 14.5 33.2002 11.7 32.2998 9.30002 30.7998C 9.70002 30.7998 10.2 30.8999 10.6 30.8999C 13.1 30.8999 15.5 30.0001 17.3 28.6001C 14.9 28.6001 12.9 26.9998 12.2 24.7998C 12.5 24.8998 12.9 24.8999 13.2 24.8999C 13.7 24.8999 14.2 24.8002 14.6 24.7002C 12.1 24.2002 10.3 21.9999 10.3 19.3999L 10.3 19.2998C 11 19.6998 11.9 19.9 12.8 20C 11.3 19 10.4 17.4 10.4 15.5C 10.4 14.5 10.7 13.5998 11.1 12.7998C 13.8 16.0998 17.8 18.2 22.3 18.5C 22.2 18.1 22.2 17.6998 22.2 17.2998C 22.2 14.2998 24.6 11.8999 27.6 11.8999C 29.2 11.8999 30.6 12.6001 31.6 13.6001C 32.7999 13.4001 34 12.8998 35 12.2998C 34.6 13.5998 33.7 14.5998 32.6 15.2998C 33.7 15.1998 34.7001 14.8999 35.7001 14.3999C 35 15.2999 34 16.3001 33 17.1001Z"/>
</defs>
</svg>
