<svg width="45" height="45" viewBox="0 0 45 45" version="1.1" xmlns="http://www.w3.org/2000/svg" xmlns:xlink="http://www.w3.org/1999/xlink">
<title>Group</title>
<desc>Created using Figma</desc>
<g id="Canvas" transform="translate(738 -470)">
<g id="Group">
<g id="Group">
<g id="Group">
<g id="Group">
<g id="Vector">
<use xlink:href="#path0_fill" transform="translate(-737.3 470)" fill="#1F89C6"/>
</g>
</g>
</g>
</g>
</g>
</g>
<defs>
<path id="path0_fill" d="M 35.7 0L 8.19999 0C 3.59999 0 -3.05176e-06 3.69999 -3.05176e-06 8.29999L -3.05176e-06 35.8C -3.05176e-06 40.4 3.69999 44.1 8.19999 44.1L 35.7 44.1C 40.3 44.1 43.9 40.4 43.9 35.8L 43.9 8.29999C 43.9 3.69999 40.2 0 35.7 0ZM 32.9 17.1L 32.9 17.8C 32.9 25 27.5 33.2 17.5 33.2C 14.4 33.2 11.6 32.3 9.19999 30.8C 9.59999 30.8 10.1 30.9 10.5 30.9C 13 30.9 15.4 30 17.2 28.6C 14.8 28.6 12.8 27 12.1 24.8C 12.4 24.9 12.8 24.9 13.1 24.9C 13.6 24.9 14.1 24.8 14.5 24.7C 12 24.2 10.2 22 10.2 19.4L 10.2 19.3C 10.9 19.7 11.8 19.9 12.7 20C 11.2 19 10.3 17.4 10.3 15.5C 10.3 14.5 10.6 13.6 11 12.8C 13.7 16.1 17.7 18.2 22.2 18.5C 22.1 18.1 22.1 17.7 22.1 17.3C 22.1 14.3 24.5 11.9 27.5 11.9C 29.1 11.9 30.5 12.6 31.5 13.6C 32.7 13.4 33.9 12.9 34.9 12.3C 34.5 13.6 33.6 14.6 32.5 15.3C 33.6 15.2 34.6 14.9 35.6 14.4C 34.9 15.3 33.9 16.3 32.9 17.1Z"/>
</defs>
</svg>
