<svg width="38" height="46" viewBox="0 0 38 46" version="1.1" xmlns="http://www.w3.org/2000/svg" xmlns:xlink="http://www.w3.org/1999/xlink">
<title>Group</title>
<desc>Created using Figma</desc>
<g id="Canvas" transform="translate(8631 -13794)">
<g id="Group">
<g id="Group">
<g id="YouTube_8_">
<use xlink:href="#path0_fill" transform="translate(-8630.8 13794.5)" fill="#6D6D6D"/>
</g>
</g>
</g>
</g>
<defs>
<path id="path0_fill" d="M 31.7 32.8999L 29.2 32.8999L 29.2 31.5C 29.2 30.9 29.7 30.2998 30.4 30.2998L 30.6 30.2998C 31.2 30.2998 31.8 30.8 31.8 31.5L 31.7 32.8999ZM 22.4 29.7998C 21.8 29.7998 21.3 30.2002 21.3 30.7002L 21.3 37.7002C 21.3 38.2002 21.8 38.6001 22.4 38.6001C 23 38.6001 23.5 38.2002 23.5 37.7002L 23.5 30.7002C 23.5 30.3002 23 29.7998 22.4 29.7998ZM 37.4 25.8999L 37.4 39.2002C 37.4 42.4002 34.6 45 31.3 45L 6.10005 45C 2.70005 45 -4.88281e-05 42.4002 -4.88281e-05 39.2002L -4.88281e-05 25.8999C -4.88281e-05 22.6999 2.80005 20.1001 6.10005 20.1001L 31.3 20.1001C 34.7 20.2001 37.4 22.7999 37.4 25.8999ZM 7.8 40.7002L 7.8 26.7002L 10.9 26.7002L 10.9 24.6001L 2.60005 24.6001L 2.60005 26.6001L 5.20002 26.6001L 5.20002 40.6001L 7.8 40.6001L 7.8 40.7002ZM 17.1 28.7998L 14.5 28.7998L 14.5 36.2998C 14.5 37.3998 14.6 37.9001 14.5 38.1001C 14.3 38.7001 13.3 39.3002 13 38.2002C 12.9 38.0002 13 37.3999 13 36.3999L 13 28.8999L 10.4 28.8999L 10.4 36.2998C 10.4 37.3998 10.4 38.3002 10.4 38.7002C 10.5 39.4002 10.4 40.2001 11.1 40.6001C 12.3 41.4001 14.5 40.4998 15.1 39.2998L 15.1 40.7998L 17.2 40.7998L 17.1 28.7998ZM 25.5 37.2998L 25.5 31.1001C 25.5 28.7001 23.7 27.3002 21.3 29.2002L 21.3 24.6001L 18.7 24.6001L 18.7 40.5L 20.8 40.5L 21 39.5C 23.7999 42 25.5 40.2998 25.5 37.2998ZM 33.6 36.5L 31.6 36.5C 31.6 36.6 31.6 36.6998 31.6 36.7998L 31.6 37.8999C 31.6 38.4999 31.1 39 30.5 39L 30.1 39C 29.5 39 29 38.4999 29 37.8999L 29 37.7998L 29 36.6001L 29 35.1001L 33.5 35.1001L 33.5 33.3999C 33.5 32.1999 33.5 30.9002 33.4 30.2002C 33.1 28.0002 30 27.5998 28.4 28.7998C 27.9 29.1998 27.5 29.5998 27.3 30.2998C 27.1 30.8998 27 31.7999 27 32.8999L 27 36.6001C 27 42.6001 34.5 41.8 33.6 36.5ZM 23.6 16.3999C 23.7 16.6999 23.9 17.0002 24.2 17.2002C 24.5 17.4002 24.8 17.5 25.3 17.5C 25.7 17.5 26 17.4002 26.3 17.2002C 26.6 17.0002 26.7999 16.6998 27 16.2998L 27 17.2998L 29.9 17.2998L 29.9 4.8999L 27.6 4.8999L 27.6 14.5C 27.6 15 27.2 15.3999 26.6 15.3999C 26.1 15.3999 25.6 15 25.6 14.5L 25.6 4.8999L 23.2 4.8999L 23.2 13.2002C 23.2 14.3002 23.2 14.9998 23.3 15.2998C 23.4 15.6998 23.5 15.9999 23.6 16.3999ZM 14.8 9.3999C 14.8 8.1999 14.9 7.3001 15.1 6.6001C 15.3 5.9001 15.7 5.4 16.2 5C 16.7 4.6 17.4 4.3999 18.2 4.3999C 18.9 4.3999 19.4 4.4998 19.9 4.7998C 20.4 5.0998 20.7999 5.3998 21 5.7998C 21.2999 6.1998 21.4 6.6001 21.5 7.1001C 21.6 7.5001 21.6 8.2001 21.6 9.1001L 21.6 12.2002C 21.6 13.3002 21.6 14.2002 21.5 14.7002C 21.4 15.2002 21.2 15.7002 20.9 16.2002C 20.6 16.7002 20.2 17.0002 19.8 17.2002C 19.3 17.4002 18.8 17.5 18.2 17.5C 17.5 17.5 17 17.4002 16.5 17.2002C 16 17.0002 15.7 16.6998 15.4 16.2998C 15.1 15.8998 15 15.4999 14.9 14.8999C 14.8 14.3999 14.7 13.5 14.7 12.5L 14.8 9.3999ZM 17.1 14.2998C 17.1 14.9998 17.6 15.6001 18.3 15.6001C 18.9 15.6001 19.5 14.9998 19.5 14.2998L 19.5 7.7002C 19.5 7.0002 19 6.3999 18.3 6.3999C 17.7 6.3999 17.1 7.0002 17.1 7.7002L 17.1 14.2998ZM 8.99995 17.6001L 11.7 17.6001L 11.7 8.1001L 14.9 0L 11.9 0L 10.2 6L 8.49995 0L 5.49995 0L 8.89998 8.1001L 8.99995 17.6001Z"/>
</defs>
</svg>
